<?xml version="1.0" ?><!DOCTYPE svg  PUBLIC '-//W3C//DTD SVG 1.1//EN'  'http://www.w3.org/Graphics/SVG/1.1/DTD/svg11.dtd'><svg enable-background="new 0 0 64 64" version="1.1" viewBox="0 0 64 64" xml:space="preserve" xmlns="http://www.w3.org/2000/svg" xmlns:xlink="http://www.w3.org/1999/xlink"><g id="Layer_1"/><g id="Layer_3"><g><path d="M54.9,27.2c0-0.3-0.2-0.7-0.5-0.8L18.1,6.8c-0.3-0.2-0.7-0.2-1,0L9,11.5c-0.1,0.1-0.2,0.1-0.3,0.2c0,0,0,0,0,0    c-0.1,0.2-0.2,0.4-0.2,0.6c0,0,0,0.1,0,0.1c0,0,0,0,0,0l5.4,43.8c0,0,0,0.1,0,0.1c0,0,0,0,0,0c0,0,0,0,0,0.1l0,0c0,0,0,0.1,0,0.1    c0,0,0,0,0,0.1c0,0,0,0,0.1,0.1c0,0,0,0.1,0.1,0.1c0,0.1,0.1,0.1,0.2,0.2c0,0,0,0,0,0c0.2,0.1,0.4,0.2,0.6,0.2    c0.1,0,0.2,0,0.2-0.1c0,0,0,0,0,0c0,0,0,0,0,0c0,0,0.1,0,0.1,0l39.6-19.6c0.4-0.2,0.6-0.7,0.5-1.1L54.9,27.2z M41.1,21.5l0.4,7    l-18.1-9.8l6.1-3.5L41.1,21.5z M40.9,30.5l-24.5,23l5.7-33.1L40.9,30.5z M15,49.4l-4.3-35.2l9.5,5.1L15,49.4z M42.8,31.5l9.6,5.2    L20.4,52.4L42.8,31.5z M53.4,35l-9.8-5.3l-0.4-7l9.8,5.3L53.4,35z M17.7,8.9l9.8,5.3l-6.1,3.5l-9.8-5.3L17.7,8.9z"/></g></g></svg>